<svg width="553" height="411" viewBox="0 0 553 411" fill="none" xmlns="http://www.w3.org/2000/svg">
<path d="M497.487 379.504H460.898V379.78H497.487V379.504Z" fill="#EBEBEB"/>
<path d="M366.386 382.496H356.783V382.772H366.386V382.496Z" fill="#EBEBEB"/>
<path d="M459.794 369.237H438.593V369.513H459.794V369.237Z" fill="#EBEBEB"/>
<path d="M106.164 371.109H58.451V371.385H106.164V371.109Z" fill="#EBEBEB"/>
<path d="M122.994 371.109H115.999V371.385H122.994V371.109Z" fill="#EBEBEB"/>
<path d="M249.211 375.761H145.731V376.037H249.211V375.761Z" fill="#EBEBEB"/>
<path d="M263.856 312.458H50.5482C47.0718 312.458 44.2428 309.629 44.2428 306.153V6.3132C44.2428 2.83684 47.0718 0.0078125 50.5482 0.0078125H263.856C267.332 0.0078125 270.161 2.83684 270.161 6.3132V306.153C270.161 309.629 267.332 312.458 263.856 312.458ZM50.5482 0.285081C47.2232 0.285081 44.519 2.98928 44.519 6.3143V306.154C44.519 309.479 47.2232 312.183 50.5482 312.183H263.856C267.18 312.183 269.885 309.479 269.885 306.154V6.3132C269.885 2.98928 267.18 0.283977 263.856 0.283977L50.5482 0.285081Z" fill="#EBEBEB"/>
<path d="M502.79 312.458H289.482C286.007 312.458 283.178 309.629 283.178 306.153V6.3132C283.178 2.83684 286.007 0.0078125 289.482 0.0078125H502.79C506.268 0.0078125 509.096 2.83684 509.096 6.3132V306.153C509.096 309.629 506.267 312.458 502.79 312.458ZM289.482 0.285081C286.158 0.285081 283.454 2.98928 283.454 6.3143V306.154C283.454 309.479 286.158 312.183 289.482 312.183H502.79C506.115 312.183 508.82 309.479 508.82 306.154V6.3132C508.82 2.98928 506.115 0.283977 502.79 0.283977L289.482 0.285081Z" fill="#EBEBEB"/>
<path d="M552.83 361.727H0.500977V362.003H552.83V361.727Z" fill="#EBEBEB"/>
<path d="M132.321 287.01C131.388 276.342 120.497 272.348 107.591 273.477C94.6866 274.606 84.6541 280.431 85.5875 291.1L132.321 287.01Z" fill="#F0F0F0"/>
<path d="M107.166 268.597C113.155 268.073 115.067 263.014 114.543 257.025C114.019 251.035 111.257 246.385 105.268 246.909C99.2785 247.433 97.3663 252.492 97.891 258.482C98.4146 264.471 101.176 269.122 107.166 268.597Z" fill="#F0F0F0"/>
<path d="M376.197 59.6776C376.486 62.9806 374.042 65.8924 370.739 66.1807C367.437 66.4702 364.525 64.0267 364.236 60.7237C363.947 57.4208 366.39 54.5089 369.693 54.2195C372.996 53.9312 375.908 56.3747 376.197 59.6776Z" fill="#F5F5F5"/>
<path d="M409.416 56.7643C409.706 60.0672 407.262 62.9791 403.959 63.2674C400.656 63.5568 397.745 61.1133 397.455 57.8104C397.166 54.5075 399.609 51.5956 402.912 51.3062C406.216 51.0179 409.127 53.4614 409.416 56.7643Z" fill="#F5F5F5"/>
<path d="M442.638 53.8657C442.927 57.1686 440.484 60.0805 437.181 60.3699C433.878 60.6593 430.966 58.2158 430.676 54.9129C430.387 51.6099 432.83 48.6981 436.133 48.4086C439.436 48.1192 442.348 50.5627 442.638 53.8657Z" fill="#F5F5F5"/>
<path d="M379.159 93.5475C379.448 96.8504 377.005 99.7623 373.702 100.052C370.399 100.341 367.487 97.8976 367.198 94.5947C366.908 91.2918 369.352 88.3799 372.655 88.0916C375.959 87.801 378.871 90.2434 379.159 93.5475Z" fill="#F5F5F5"/>
<path d="M412.379 90.6349C412.669 93.9378 410.225 96.8497 406.922 97.1391C403.619 97.4285 400.707 94.985 400.418 91.6821C400.129 88.3792 402.572 85.4673 405.875 85.1779C409.178 84.8896 412.09 87.3331 412.379 90.6349Z" fill="#F5F5F5"/>
<path d="M445.6 87.7225C445.889 91.0254 443.446 93.9373 440.143 94.2256C436.84 94.515 433.928 92.0715 433.639 88.7686C433.349 85.4657 435.793 82.5538 439.096 82.2644C442.399 81.9772 445.31 84.4207 445.6 87.7225Z" fill="#F5F5F5"/>
<path d="M382.122 127.389C382.411 130.692 379.968 133.604 376.665 133.893C373.362 134.182 370.45 131.739 370.161 128.436C369.872 125.133 372.316 122.221 375.618 121.932C378.92 121.642 381.832 124.086 382.122 127.389Z" fill="#F5F5F5"/>
<path d="M415.341 124.49C415.631 127.793 413.187 130.705 409.884 130.994C406.582 131.284 403.67 128.84 403.38 125.537C403.091 122.235 405.534 119.323 408.837 119.034C412.14 118.744 415.052 121.187 415.341 124.49Z" fill="#F5F5F5"/>
<path d="M448.562 121.593C448.851 124.896 446.408 127.808 443.105 128.097C439.802 128.385 436.89 125.942 436.6 122.64C436.311 119.337 438.755 116.425 442.057 116.136C445.362 115.847 448.273 118.291 448.562 121.593Z" fill="#F5F5F5"/>
<path d="M441.384 123.53L373.131 129.502L433.647 55.9678L371.642 61.3928C370.918 61.4558 370.279 60.92 370.216 60.1954C370.153 59.4707 370.689 58.8322 371.414 58.7693L439.666 52.7975L379.151 126.331L441.155 120.906C441.88 120.843 442.518 121.379 442.581 122.103C442.644 122.827 442.108 123.467 441.384 123.53Z" fill="#E6E6E6"/>
<path d="M442.429 254.802C442.203 254.151 441.621 253.669 440.934 253.623C437.803 253.414 435.159 252.243 433.065 250.14C430.336 247.4 428.731 243.229 428.471 238.276C428.423 237.354 427.649 236.635 426.726 236.629C425.703 236.623 424.888 237.487 424.943 238.507C425.258 244.316 427.222 249.283 430.56 252.636C433.168 255.255 436.532 256.789 440.365 257.124C440.431 257.13 440.518 257.137 440.617 257.145C441.888 257.246 442.846 256.006 442.429 254.802Z" fill="#F0F0F0"/>
<path d="M438.902 275.984C424.261 274.703 413.703 264.725 410.362 249.153C410.149 248.16 410.782 247.183 411.782 247.009C412.707 246.849 413.611 247.435 413.806 248.353C416.8 262.356 426.198 271.324 439.209 272.463C453.478 273.711 468.803 264.324 471.548 240.657C471.659 239.699 472.495 238.991 473.456 239.075C474.441 239.161 475.179 240.039 475.063 241.02C472.432 263.333 457.762 277.635 438.902 275.984Z" fill="#F0F0F0"/>
<path d="M411.279 233.658C410.294 233.572 409.557 232.694 409.673 231.713C412.304 209.399 426.976 195.098 445.835 196.747C462.359 198.193 473.501 210.564 475.236 229.2C475.328 230.184 474.565 231.041 473.578 231.1H473.575C472.613 231.157 471.801 230.431 471.709 229.472C470.116 212.682 460.201 201.553 445.525 200.269C431.256 199.021 415.932 208.407 413.186 232.074C413.076 233.034 412.24 233.742 411.279 233.658Z" fill="#F0F0F0"/>
<path d="M439.62 266.549C436.898 266.31 434.345 265.675 432.002 264.651C431.048 264.235 430.655 263.087 431.153 262.174C431.588 261.377 432.556 261.032 433.386 261.398C435.589 262.366 438.023 262.935 440.647 263.078C451.469 263.698 462.891 256.033 464.01 237.512C464.7 226.105 460.793 216.891 453.497 212.485C452.715 212.012 452.425 211.024 452.828 210.204C453.286 209.273 454.448 208.929 455.337 209.465C463.778 214.562 468.312 224.961 467.54 237.725C466.461 255.584 455.318 267.462 440.444 266.61C440.169 266.592 439.892 266.572 439.62 266.549Z" fill="#F0F0F0"/>
<path d="M423.88 255.53C423.025 256.115 421.856 255.842 421.337 254.945C418.205 249.528 416.74 242.543 417.194 235.041C418.227 217.958 428.47 206.347 442.378 206.118C443.41 206.101 444.244 206.964 444.186 207.995V207.999C444.133 208.917 443.385 209.64 442.466 209.657C432.151 209.861 421.789 217.657 420.725 235.254C420.312 242.086 421.619 248.39 424.42 253.211C424.88 254.003 424.636 255.013 423.88 255.53Z" fill="#F0F0F0"/>
<path d="M448.031 254.093C447.671 253.274 447.985 252.329 448.752 251.867C453.397 249.07 456.25 243.2 456.299 236.125C456.338 230.457 454.693 225.662 451.667 222.625C449.334 220.28 446.317 219.101 442.702 219.107C437.256 219.122 432.846 222.105 430.403 227.356C430.018 228.182 429.062 228.573 428.205 228.258C427.232 227.9 426.769 226.779 427.209 225.84C430.231 219.39 435.902 215.589 442.692 215.57C447.22 215.564 451.191 217.136 454.173 220.129C457.869 223.841 459.879 229.529 459.834 236.148C459.778 244.498 456.26 251.497 450.532 254.923C449.63 255.462 448.454 255.055 448.031 254.093Z" fill="#F0F0F0"/>
<path d="M435.303 241.089C434.299 241.492 433.176 240.908 432.918 239.857C432.801 239.379 432.704 238.886 432.628 238.379C431.628 231.769 435.182 226.012 440.894 224.991C443.842 224.462 446.471 225.156 448.481 226.95C449.296 227.679 449.233 228.979 448.344 229.617L448.233 229.695C447.564 230.175 446.681 230.066 446.057 229.529C444.859 228.501 443.336 228.145 441.516 228.471C437.162 229.25 435.508 233.779 436.124 237.85C436.184 238.246 436.259 238.631 436.349 239C436.559 239.867 436.131 240.755 435.303 241.089Z" fill="#F0F0F0"/>
<path d="M441.146 247.876C441.142 247.876 441.136 247.875 441.132 247.875C439.913 247.767 439.241 246.401 439.89 245.364L440.04 245.124C440.366 244.605 440.948 244.319 441.56 244.362C442.084 244.397 442.639 244.364 443.219 244.26C447.02 243.58 448.764 240.041 448.734 236.444C448.726 235.546 449.348 234.77 450.235 234.637C451.273 234.48 452.252 235.251 452.272 236.3C452.377 242.064 448.984 246.822 443.84 247.741C442.913 247.907 442.01 247.952 441.146 247.876Z" fill="#F0F0F0"/>
<path d="M441.932 241.329C440.05 241.164 438.647 239.896 438.138 238.086C437.843 237.036 438.723 236.02 439.808 236.115L440.213 236.15C440.843 236.205 441.362 236.636 441.572 237.233C441.675 237.524 441.871 237.774 442.239 237.806C443.089 237.88 443.238 236.662 443.26 236.416C443.275 236.242 443.312 235.565 443.022 235.166C442.739 234.775 442.544 234.327 442.586 233.846C442.724 232.274 444.71 231.642 445.712 232.862C446.509 233.832 446.917 235.189 446.783 236.725C446.53 239.615 444.489 241.553 441.932 241.329Z" fill="#F0F0F0"/>
<path d="M408.71 201.808C407.737 201.723 407.018 200.866 407.103 199.892L408.443 184.575L423.76 185.915C424.733 186 425.452 186.857 425.367 187.831C425.282 188.804 424.425 189.523 423.452 189.438L411.657 188.406L410.625 200.201C410.54 201.174 409.682 201.893 408.71 201.808Z" fill="#F0F0F0"/>
<path d="M481.538 208.209C480.565 208.123 479.846 207.266 479.931 206.293L480.963 194.499L469.168 193.467C468.195 193.382 467.476 192.525 467.561 191.551C467.646 190.578 468.503 189.859 469.476 189.944L484.793 191.284L483.454 206.601C483.368 207.574 482.511 208.294 481.538 208.209Z" fill="#F0F0F0"/>
<path d="M476.108 290.545L460.791 289.205C459.818 289.12 459.099 288.262 459.184 287.289C459.269 286.316 460.126 285.597 461.099 285.682L472.894 286.714L473.926 274.919C474.011 273.946 474.868 273.227 475.841 273.312C476.814 273.397 477.533 274.254 477.448 275.227L476.108 290.545Z" fill="#F0F0F0"/>
<path d="M415.074 285.217L399.757 283.877L401.097 268.56C401.182 267.587 402.039 266.868 403.013 266.953C403.986 267.038 404.705 267.895 404.62 268.868L403.588 280.663L415.383 281.694C416.356 281.779 417.075 282.637 416.99 283.61C416.905 284.583 416.048 285.302 415.074 285.217Z" fill="#F0F0F0"/>
<path d="M83.052 252.074C82.4544 252.126 81.9264 251.684 81.8744 251.085L81.0504 241.668L90.4676 240.844C91.0663 240.792 91.5932 241.234 91.6451 241.832C91.6971 242.43 91.2552 242.958 90.6565 243.01L83.4044 243.644L84.0385 250.896C84.0926 251.495 83.6496 252.022 83.052 252.074Z" fill="#E0E0E0"/>
<path d="M127.832 248.155C127.234 248.207 126.706 247.765 126.654 247.166L126.02 239.914L118.768 240.548C118.17 240.6 117.642 240.158 117.59 239.56C117.538 238.962 117.98 238.434 118.579 238.382L127.996 237.558L128.82 246.975C128.872 247.575 128.43 248.103 127.832 248.155Z" fill="#E0E0E0"/>
<path d="M132.47 288.69L123.052 289.514C122.455 289.566 121.927 289.124 121.875 288.525C121.823 287.928 122.265 287.4 122.864 287.348L130.116 286.714L129.482 279.462C129.43 278.863 129.871 278.336 130.47 278.284C131.068 278.232 131.596 278.674 131.648 279.273L132.47 288.69Z" fill="#E0E0E0"/>
<path d="M94.9425 291.997L85.5253 292.821L84.7012 283.403C84.6493 282.805 85.0912 282.277 85.6899 282.225C86.2875 282.173 86.8155 282.615 86.8674 283.214L87.5015 290.466L94.7536 289.832C95.3512 289.78 95.8792 290.222 95.9312 290.821C95.9831 291.417 95.5401 291.944 94.9425 291.997Z" fill="#E0E0E0"/>
<path d="M127.074 95.0089L91.0283 98.1627L90.2904 89.7275C89.5249 80.9764 96.0214 73.235 104.771 72.4695C113.522 71.7039 121.264 78.2004 122.029 86.9504L122.458 91.8518L127.659 91.3967L127.23 86.4953C126.214 74.8765 115.935 66.2524 104.316 67.2687C92.6975 68.285 84.0734 78.5639 85.0897 90.1826L85.832 98.6664C81.6376 99.4839 78.6517 103.352 79.0318 107.704L81.6067 137.135C82.0143 141.789 86.117 145.231 90.7709 144.825L131.124 141.294C135.778 140.888 139.22 136.785 138.814 132.131L136.239 102.7C135.831 98.0445 131.728 94.6013 127.074 95.0089ZM111.763 117.688L112.65 127.822C112.796 129.485 111.565 130.951 109.901 131.097C108.238 131.243 106.772 130.012 106.626 128.349L105.739 118.214C104.416 117.399 103.471 116.004 103.325 114.336C103.08 111.536 105.152 109.067 107.953 108.822C110.753 108.576 113.222 110.649 113.467 113.449C113.612 115.116 112.924 116.655 111.763 117.688Z" fill="#EBEBEB"/>
<path d="M188.785 112.066L185.141 106.125C183.167 106.398 181.552 106.398 179.578 106.125L175.934 112.066L175.234 111.881C172.886 111.257 170.62 110.315 168.501 109.086L167.875 108.722L169.42 102.273C169.545 101.751 170.07 101.429 170.593 101.554C171.115 101.679 171.436 102.204 171.311 102.726L170.104 107.757C171.678 108.614 173.333 109.301 175.039 109.807L178.598 104.003L179.242 104.108C181.305 104.445 183.411 104.445 185.474 104.108L186.118 104.003L189.678 109.807C191.383 109.3 193.038 108.614 194.612 107.757L193.028 101.146L193.558 100.766C195.003 99.7272 196.291 98.4999 197.397 97.1114C197.725 96.6982 198.309 96.601 198.737 96.9092C199.181 97.2285 199.285 97.8581 198.946 98.2868C197.859 99.6587 196.611 100.887 195.221 101.952L196.844 108.722L196.218 109.086C194.1 110.315 191.834 111.257 189.485 111.881L188.785 112.066ZM166.449 99.0965C166.143 98.7463 165.847 98.3862 165.563 98.0161L158.791 99.6377L158.428 99.0125C157.199 96.8938 156.257 94.6281 155.633 92.2796L155.448 91.5804L161.388 87.9361C161.252 86.9463 161.185 86.0317 161.185 85.1546C161.185 84.2786 161.253 83.3628 161.388 82.3731L155.448 78.7299L155.633 78.0306C156.257 75.6821 157.199 73.4165 158.428 71.2978L158.791 70.6725L165.562 72.2942C166.696 70.8139 168.016 69.495 169.497 68.3594L168.268 63.236C168.143 62.7146 168.465 62.191 168.985 62.0661L168.989 62.065C169.51 61.9402 170.034 62.2617 170.158 62.7819L171.687 69.1647L171.153 69.5491C169.456 70.7708 167.968 72.2588 166.747 73.9556L166.366 74.4847L159.755 72.9006C158.899 74.4748 158.213 76.1295 157.706 77.8351L163.507 81.3932L163.402 82.0372C163.217 83.1761 163.126 84.1957 163.126 85.1535C163.126 86.1134 163.217 87.1319 163.402 88.2697L163.507 88.9126L157.704 92.4729C158.21 94.1796 158.898 95.8333 159.754 97.4074L166.365 95.8234L166.746 96.3525C167.105 96.8518 167.491 97.3367 167.897 97.8018C168.235 98.1884 168.226 98.7662 167.856 99.123L167.821 99.1572C167.432 99.5361 166.807 99.5052 166.449 99.0965ZM205.926 99.6389L203.43 99.0412C202.907 98.9164 202.586 98.3917 202.71 97.8692C202.835 97.3478 203.36 97.0252 203.882 97.1501L204.961 97.4085C205.817 95.8344 206.503 94.1796 207.01 92.474L201.207 88.9137L201.312 88.2708C201.498 87.133 201.588 86.1134 201.588 85.1546C201.588 84.1957 201.498 83.1772 201.312 82.0383L201.207 81.3943L207.009 77.8362C206.503 76.1295 205.816 74.4759 204.96 72.9017L198.348 74.4858L197.967 73.9567C196.746 72.2599 195.258 70.7719 193.562 69.5502L193.027 69.1658L194.611 62.5544C193.037 61.6983 191.382 61.0112 189.677 60.5041L186.117 66.3069L185.473 66.2031C183.409 65.8684 181.303 65.8684 179.239 66.2031L178.596 66.3069L175.037 60.5053C174.816 60.5704 174.595 60.64 174.374 60.7118C173.881 60.8731 173.351 60.608 173.173 60.1219C172.985 59.6105 173.251 59.0338 173.768 58.8648C174.253 58.7058 174.743 58.561 175.23 58.4318L175.93 58.2451L179.574 64.1871C181.557 63.912 183.154 63.912 185.136 64.1871L188.781 58.2451L189.481 58.4307C191.83 59.0559 194.095 59.9971 196.214 61.2255L196.839 61.5889L195.216 68.3605C196.697 69.4961 198.017 70.815 199.151 72.2953L205.922 70.6736L206.285 71.2989C207.515 73.4176 208.456 75.6832 209.08 78.0317L209.265 78.731L203.325 82.3742C203.462 83.3639 203.528 84.2797 203.528 85.1557C203.528 86.0328 203.46 86.9474 203.325 87.9372L209.265 91.5815L209.08 92.2807C208.456 94.6292 207.515 96.8949 206.285 99.0136L205.926 99.6389ZM182.086 94.6204C177.151 94.4812 173.035 90.3675 172.894 85.4318C172.751 80.4576 176.468 76.303 181.266 75.7495C181.846 75.6821 182.359 76.1362 182.359 76.7205C182.359 77.211 181.994 77.623 181.507 77.6783C177.276 78.1577 174.098 82.1587 174.984 86.6702C175.559 89.5997 177.92 91.9604 180.85 92.5326C185.659 93.4727 189.885 89.7986 189.885 85.1546C189.885 83.6003 189.406 82.0958 188.523 80.8354C188.245 80.4377 188.32 79.8942 188.685 79.5727C189.121 79.1872 189.801 79.2679 190.134 79.7462C191.233 81.3258 191.83 83.2093 191.83 85.1546C191.827 90.4669 187.432 94.7706 182.086 94.6204Z" fill="#F0F0F0"/>
<path d="M120.151 192.935L117.797 189.097C116.522 189.274 115.478 189.274 114.204 189.097L111.85 192.935L111.398 192.815C109.88 192.411 108.416 191.804 107.048 191.008L106.643 190.773L107.642 186.606C107.723 186.27 108.062 186.061 108.399 186.142C108.735 186.223 108.943 186.562 108.863 186.899L108.084 190.149C109.101 190.702 110.169 191.147 111.272 191.474L113.571 187.724L113.987 187.793C115.32 188.01 116.68 188.01 118.013 187.793L118.43 187.724L120.73 191.474C121.832 191.147 122.9 190.702 123.918 190.149L122.894 185.878L123.236 185.632C124.17 184.962 125.002 184.168 125.716 183.271C125.928 183.005 126.306 182.942 126.582 183.141C126.868 183.348 126.936 183.754 126.717 184.031C126.015 184.917 125.208 185.712 124.31 186.4L125.358 190.773L124.954 191.008C123.585 191.803 122.122 192.41 120.604 192.815L120.151 192.935ZM105.721 184.557C105.523 184.331 105.332 184.099 105.149 183.859L100.774 184.907L100.54 184.503C99.7458 183.134 99.1382 181.671 98.735 180.153L98.6146 179.701L102.452 177.347C102.364 176.708 102.321 176.117 102.321 175.55C102.321 174.984 102.364 174.392 102.452 173.753L98.6146 171.399L98.735 170.947C99.1382 169.429 99.7458 167.966 100.54 166.597L100.774 166.192L105.149 167.241C105.881 166.284 106.734 165.432 107.69 164.699L106.897 161.389C106.817 161.052 107.024 160.714 107.36 160.634L107.362 160.633C107.699 160.552 108.037 160.76 108.118 161.097L109.106 165.22L108.76 165.469C107.664 166.258 106.703 167.219 105.914 168.315L105.668 168.658L101.396 167.635C100.844 168.652 100.4 169.721 100.073 170.823L103.821 173.122L103.753 173.538C103.633 174.274 103.576 174.932 103.576 175.552C103.576 176.172 103.634 176.83 103.753 177.566L103.822 177.981L100.074 180.281C100.401 181.384 100.845 182.452 101.397 183.469L105.669 182.446L105.915 182.789C106.147 183.111 106.396 183.425 106.659 183.725C106.877 183.975 106.871 184.348 106.632 184.578L106.609 184.6C106.356 184.84 105.953 184.82 105.721 184.557ZM131.224 184.906L129.611 184.521C129.274 184.44 129.066 184.101 129.146 183.764C129.227 183.427 129.566 183.22 129.903 183.3L130.6 183.467C131.152 182.45 131.596 181.381 131.923 180.279L128.175 177.979L128.244 177.564C128.363 176.829 128.422 176.17 128.422 175.55C128.422 174.93 128.363 174.272 128.244 173.536L128.176 173.12L131.924 170.821C131.597 169.718 131.153 168.65 130.601 167.633L126.329 168.656L126.083 168.313C125.294 167.217 124.333 166.255 123.237 165.467L122.892 165.218L123.916 160.946C122.898 160.393 121.83 159.95 120.728 159.622L118.429 163.37L118.013 163.303C116.68 163.086 115.32 163.086 113.986 163.303L113.571 163.37L111.272 159.622C111.129 159.664 110.986 159.709 110.844 159.756C110.526 159.859 110.184 159.688 110.069 159.374C109.947 159.044 110.12 158.672 110.453 158.562C110.767 158.46 111.083 158.366 111.397 158.283L111.85 158.163L114.204 162.001C115.485 161.823 116.516 161.823 117.797 162.001L120.151 158.163L120.603 158.283C122.12 158.687 123.583 159.295 124.953 160.088L125.357 160.323L124.309 164.698C125.266 165.431 126.117 166.283 126.851 167.24L131.225 166.191L131.459 166.596C132.254 167.964 132.861 169.428 133.264 170.946L133.385 171.398L129.547 173.752C129.636 174.391 129.679 174.982 129.679 175.549C129.679 176.115 129.636 176.706 129.547 177.346L133.385 179.7L133.264 180.152C132.861 181.67 132.254 183.133 131.459 184.502L131.224 184.906ZM115.824 181.664C112.635 181.575 109.977 178.917 109.885 175.728C109.793 172.514 112.194 169.83 115.294 169.472C115.668 169.429 116 169.723 116 170.1C116 170.417 115.763 170.683 115.448 170.718C112.716 171.027 110.662 173.612 111.234 176.528C111.605 178.42 113.131 179.945 115.024 180.315C118.131 180.923 120.861 178.549 120.861 175.549C120.861 174.545 120.552 173.573 119.982 172.758C119.802 172.502 119.851 172.15 120.086 171.942C120.369 171.692 120.807 171.745 121.023 172.055C121.733 173.075 122.118 174.292 122.118 175.549C122.116 178.981 119.276 181.763 115.824 181.664Z" fill="#E6E6E6"/>
<path d="M276.666 410.994C394.955 410.994 490.847 405.394 490.847 398.486C490.847 391.578 394.955 385.978 276.666 385.978C158.377 385.978 62.4852 391.578 62.4852 398.486C62.4852 405.394 158.377 410.994 276.666 410.994Z" fill="#F5F5F5"/>
</svg>
