<svg width="42" height="34" viewBox="0 0 42 34" fill="none" xmlns="http://www.w3.org/2000/svg">
<path d="M41.7042 17C41.7042 12.4914 39.9677 8.16731 36.8766 4.97919C33.7856 1.79107 29.5933 5.91243e-07 25.222 0C20.8506 -5.91242e-07 16.6583 1.79107 13.5673 4.97919C10.4763 8.16731 8.73975 12.4914 8.73975 17H13.8905C15.5973 17 16.9284 15.5248 17.5536 13.8866C17.964 12.8112 18.5869 11.8228 19.3946 10.9896C20.9401 9.39554 23.0363 8.50001 25.222 8.50001C27.4076 8.50001 29.5038 9.39554 31.0493 10.9896C32.5949 12.5836 33.463 14.7457 33.463 17H41.7042Z" fill="url(#paint0_linear_233_7910)"/>
<path d="M32.2097 23.5056C33.038 21.443 33.4644 19.2324 33.4644 17H41.7046C41.7046 26.3888 34.3252 33.9999 25.2224 33.9999C23.7968 33.9999 22.4134 33.8133 21.0942 33.4624C21.8406 33.264 22.5743 33.0114 23.2896 32.7059C25.2893 31.8516 27.1063 30.5994 28.6368 29.0208C30.1673 27.4422 31.3815 25.5681 32.2097 23.5056Z" fill="#FBCF8E"/>
<path d="M0.5 17C0.5 19.2325 0.926325 21.4431 1.75463 23.5057C2.58295 25.5682 3.79701 27.4423 5.32753 29.0209C6.85804 30.5994 8.67503 31.8517 10.6747 32.706C12.6744 33.5604 14.8177 34 16.9822 34C19.1467 34 21.2899 33.5604 23.2897 32.706C25.2894 31.8517 27.1064 30.5994 28.6369 29.0209C30.1674 27.4423 31.3814 25.5682 32.2098 23.5057C33.0381 21.4431 33.4645 19.2325 33.4645 17H28.3137C26.6069 17 25.2758 18.4753 24.6506 20.1133C24.6329 20.16 24.6146 20.2064 24.596 20.2529C24.1818 21.2841 23.5748 22.2212 22.8095 23.0105C22.0443 23.7997 21.1358 24.4259 20.1359 24.8531C19.1361 25.2802 18.0645 25.5001 16.9822 25.5001C15.9 25.5001 14.8283 25.2802 13.8285 24.8531C12.8286 24.4259 11.9202 23.7997 11.1549 23.0105C10.3896 22.2212 9.78258 21.2841 9.36843 20.2529C8.95427 19.2216 8.74111 18.1163 8.74111 17H0.5Z" fill="url(#paint1_linear_233_7910)"/>
<path d="M0.501465 17C0.501465 7.61114 7.88078 0 16.9836 0C18.4088 0 19.7918 0.186569 21.1109 0.537335C18.2805 1.28938 15.6695 2.81131 13.5676 4.9792C10.4766 8.16729 8.74007 12.4914 8.74007 17H0.501465Z" fill="#73E5E2"/>
<defs>
<linearGradient id="paint0_linear_233_7910" x1="41.7042" y1="8.50001" x2="8.73975" y2="8.50001" gradientUnits="userSpaceOnUse">
<stop stop-color="#73E5E2"/>
<stop offset="1" stop-color="#394F87"/>
</linearGradient>
<linearGradient id="paint1_linear_233_7910" x1="0.500001" y1="25.5001" x2="33.4645" y2="25.5001" gradientUnits="userSpaceOnUse">
<stop stop-color="#FBDC8E"/>
<stop offset="1" stop-color="#FB958E"/>
</linearGradient>
</defs>
</svg>
