<svg width="306" height="49" viewBox="0 0 306 49" fill="none" xmlns="http://www.w3.org/2000/svg">
<path d="M59.3825 24.5C59.3825 18.0022 56.8798 11.7705 52.4251 7.17588C47.9704 2.58125 41.9286 8.52084e-07 35.6287 0C29.3289 -8.52082e-07 23.287 2.58125 18.8323 7.17588C14.3776 11.7705 11.875 18.0022 11.875 24.5H19.2981C21.7579 24.5 23.6763 22.3739 24.5773 20.0131C25.1688 18.4631 26.0664 17.0387 27.2305 15.8379C29.4578 13.5406 32.4788 12.25 35.6287 12.25C38.7787 12.25 41.7997 13.5406 44.027 15.8379C46.2544 18.1352 47.5055 21.2511 47.5055 24.5H59.3825Z" fill="url(#paint0_linear_233_596)"/>
<path d="M45.6999 33.8757C46.8937 30.9032 47.5082 27.7173 47.5082 24.5H59.3838C59.3838 38.0309 48.7488 48.9998 35.63 48.9998C33.5755 48.9998 31.5819 48.7309 29.6807 48.2252C30.7564 47.9393 31.8137 47.5753 32.8445 47.135C35.7265 45.9037 38.3451 44.0991 40.5508 41.8241C42.7566 39.549 44.5063 36.8482 45.6999 33.8757Z" fill="#FBCF8E"/>
<path d="M0 24.5C-4.46255e-07 27.7175 0.614408 30.9033 1.80814 33.8758C3.00189 36.8483 4.75156 39.5492 6.95731 41.8242C9.16304 44.0991 11.7816 45.9038 14.6636 47.1351C17.5455 48.3664 20.6343 49 23.7538 49C26.8731 49 29.9619 48.3664 32.8439 47.1351C35.7258 45.9038 38.3444 44.0991 40.5502 41.8242C42.7559 39.5492 44.5055 36.8483 45.6993 33.8758C46.893 30.9033 47.5075 27.7175 47.5075 24.5H40.0844C37.6246 24.5 35.7062 26.6261 34.8052 28.9868C34.7797 29.0541 34.7533 29.121 34.7265 29.188C34.1296 30.6742 33.2548 32.0247 32.1519 33.1621C31.0491 34.2996 29.7397 35.202 28.2988 35.8176C26.8579 36.4333 25.3135 36.7501 23.7538 36.7501C22.194 36.7501 20.6496 36.4333 19.2087 35.8176C17.7677 35.202 16.4584 34.2996 15.3555 33.1621C14.2526 32.0247 13.3778 30.6742 12.7809 29.188C12.1841 27.7017 11.8769 26.1087 11.8769 24.5H0Z" fill="url(#paint1_linear_233_596)"/>
<path d="M0.00292969 24.5C0.00292969 10.969 10.6378 0 23.7566 0C25.8106 0 27.8036 0.268878 29.7047 0.774392C25.6256 1.85822 21.8627 4.05159 18.8334 7.1759C14.3788 11.7705 11.8762 18.0022 11.8762 24.5H0.00292969Z" fill="#73E5E2"/>
<path d="M300.161 20.2943V33.7884H295.567V16.5299H299.889L300.161 20.2943ZM305.36 16.4183L305.281 20.6771C305.057 20.6452 304.786 20.6186 304.467 20.5973C304.159 20.5654 303.877 20.5495 303.622 20.5495C302.973 20.5495 302.41 20.6345 301.931 20.8047C301.463 20.9642 301.07 21.2034 300.751 21.5224C300.442 21.8415 300.208 22.2296 300.049 22.6868C299.9 23.1441 299.815 23.6651 299.794 24.25L298.869 23.9629C298.869 22.8463 298.98 21.8202 299.204 20.8844C299.427 19.938 299.751 19.1139 300.177 18.4121C300.613 17.7103 301.144 17.168 301.772 16.7852C302.399 16.4023 303.117 16.2109 303.925 16.2109C304.18 16.2109 304.441 16.2322 304.707 16.2747C304.972 16.3066 305.19 16.3545 305.36 16.4183Z" fill="#2B2B2B"/>
<path d="M285.57 34.1074C284.23 34.1074 283.029 33.8947 281.965 33.4694C280.902 33.0334 279.998 32.4326 279.254 31.667C278.52 30.9013 277.956 30.0134 277.563 29.0032C277.169 27.9824 276.973 26.8978 276.973 25.7493V25.1113C276.973 23.8034 277.159 22.6071 277.531 21.5224C277.903 20.4378 278.435 19.4967 279.126 18.6992C279.828 17.9017 280.678 17.2903 281.678 16.8649C282.678 16.4289 283.805 16.2109 285.06 16.2109C286.282 16.2109 287.367 16.413 288.313 16.8171C289.26 17.2211 290.052 17.7954 290.69 18.5397C291.339 19.2841 291.828 20.1773 292.158 21.2194C292.487 22.2509 292.652 23.3993 292.652 24.6647V26.5787H278.935V23.5163H288.138V23.1653C288.138 22.5273 288.021 21.9584 287.787 21.4586C287.564 20.9482 287.223 20.5442 286.766 20.2464C286.309 19.9487 285.724 19.7998 285.012 19.7998C284.406 19.7998 283.885 19.9327 283.449 20.1986C283.013 20.4644 282.656 20.8366 282.38 21.3151C282.114 21.7936 281.912 22.3572 281.774 23.0058C281.646 23.6439 281.582 24.3457 281.582 25.1113V25.7493C281.582 26.4405 281.678 27.0785 281.869 27.6634C282.071 28.2482 282.353 28.7533 282.715 29.1787C283.087 29.604 283.534 29.9337 284.055 30.1676C284.586 30.4015 285.187 30.5185 285.857 30.5185C286.686 30.5185 287.457 30.359 288.17 30.04C288.893 29.7104 289.515 29.2159 290.036 28.5566L292.269 30.9811C291.908 31.5021 291.413 32.0019 290.786 32.4804C290.169 32.9589 289.425 33.3524 288.553 33.6608C287.681 33.9585 286.686 34.1074 285.57 34.1074Z" fill="#2B2B2B"/>
<path d="M264.78 9.26562V33.7815H260.187V9.26562H264.78ZM275.658 16.5231L268.162 25.0726L264.142 29.1399L262.467 25.8222L265.658 21.7708L270.14 16.5231H275.658ZM270.889 33.7815L265.785 25.8063L268.959 23.0309L276.185 33.7815H270.889Z" fill="#2B2B2B"/>
<path d="M249.975 30.5185C250.538 30.5185 251.038 30.4122 251.474 30.1995C251.91 29.9762 252.251 29.6678 252.495 29.2744C252.75 28.8703 252.883 28.3971 252.894 27.8548H257.216C257.206 29.067 256.881 30.1463 256.243 31.0927C255.605 32.0285 254.749 32.7675 253.675 33.3099C252.601 33.8415 251.4 34.1074 250.071 34.1074C248.731 34.1074 247.561 33.8841 246.562 33.4375C245.573 32.9908 244.748 32.3741 244.089 31.5872C243.43 30.7897 242.935 29.8645 242.606 28.8118C242.276 27.7485 242.111 26.6107 242.111 25.3984V24.9359C242.111 23.713 242.276 22.5752 242.606 21.5224C242.935 20.4591 243.43 19.534 244.089 18.7471C244.748 17.9495 245.573 17.3275 246.562 16.8809C247.55 16.4342 248.71 16.2109 250.039 16.2109C251.453 16.2109 252.692 16.4821 253.755 17.0244C254.829 17.5667 255.669 18.343 256.275 19.3532C256.892 20.3527 257.206 21.5384 257.216 22.9101H252.894C252.883 22.3359 252.761 21.8149 252.527 21.347C252.304 20.8791 251.974 20.5069 251.538 20.2305C251.113 19.9433 250.586 19.7998 249.959 19.7998C249.289 19.7998 248.741 19.9433 248.316 20.2305C247.891 20.5069 247.561 20.8897 247.327 21.3789C247.093 21.8574 246.928 22.405 246.833 23.0218C246.748 23.6279 246.705 24.2659 246.705 24.9359V25.3984C246.705 26.0683 246.748 26.7117 246.833 27.3284C246.918 27.9452 247.077 28.4928 247.311 28.9713C247.556 29.4498 247.891 29.8273 248.316 30.1038C248.741 30.3803 249.294 30.5185 249.975 30.5185Z" fill="#2B2B2B"/>
<path d="M234.372 29.8965V22.2083C234.372 21.6554 234.281 21.1822 234.1 20.7887C233.92 20.3846 233.638 20.071 233.255 19.8476C232.883 19.6243 232.399 19.5127 231.804 19.5127C231.293 19.5127 230.852 19.6031 230.48 19.7838C230.107 19.954 229.82 20.2039 229.618 20.5335C229.416 20.8525 229.315 21.23 229.315 21.666H224.722C224.722 20.9323 224.892 20.2358 225.232 19.5765C225.572 18.9172 226.067 18.3377 226.715 17.8379C227.364 17.3275 228.135 16.9287 229.028 16.6416C229.932 16.3545 230.942 16.2109 232.059 16.2109C233.399 16.2109 234.59 16.4342 235.632 16.8809C236.674 17.3275 237.493 17.9974 238.088 18.8906C238.694 19.7838 238.997 20.9004 238.997 22.2402V29.6253C238.997 30.5717 239.056 31.3479 239.173 31.9541C239.29 32.5495 239.46 33.0706 239.683 33.5172V33.7884H235.041C234.818 33.3205 234.648 32.7356 234.531 32.0338C234.425 31.3214 234.372 30.6089 234.372 29.8965ZM234.978 23.277L235.01 25.8769H232.442C231.835 25.8769 231.309 25.946 230.862 26.0843C230.416 26.2225 230.049 26.4192 229.762 26.6745C229.475 26.919 229.262 27.2061 229.124 27.5358C228.996 27.8654 228.932 28.227 228.932 28.6204C228.932 29.0139 229.023 29.3701 229.204 29.6891C229.384 29.9975 229.645 30.242 229.985 30.4228C230.325 30.593 230.724 30.678 231.181 30.678C231.873 30.678 232.473 30.5398 232.984 30.2633C233.494 29.9868 233.888 29.6466 234.164 29.2425C234.451 28.8384 234.6 28.4556 234.611 28.094L235.823 30.04C235.653 30.476 235.419 30.9279 235.121 31.3958C234.834 31.8637 234.467 32.305 234.021 32.7197C233.574 33.1238 233.037 33.4587 232.41 33.7246C231.782 33.9798 231.038 34.1074 230.177 34.1074C229.081 34.1074 228.087 33.8894 227.194 33.4534C226.311 33.0068 225.609 32.3954 225.088 31.6191C224.578 30.8322 224.323 29.939 224.323 28.9394C224.323 28.0356 224.493 27.2327 224.833 26.5309C225.173 25.8291 225.673 25.2389 226.333 24.7604C227.002 24.2712 227.837 23.9044 228.837 23.6598C229.836 23.4046 230.995 23.277 232.314 23.277H234.978Z" fill="#2B2B2B"/>
<path d="M217.926 20.2943V33.7884H213.333V16.5299H217.655L217.926 20.2943ZM223.126 16.4183L223.046 20.6771C222.823 20.6452 222.552 20.6186 222.233 20.5973C221.925 20.5654 221.643 20.5495 221.388 20.5495C220.739 20.5495 220.175 20.6345 219.697 20.8047C219.229 20.9642 218.835 21.2034 218.516 21.5224C218.208 21.8415 217.974 22.2296 217.815 22.6868C217.666 23.1441 217.581 23.6651 217.559 24.25L216.634 23.9629C216.634 22.8463 216.746 21.8202 216.969 20.8844C217.193 19.938 217.517 19.1139 217.942 18.4121C218.378 17.7103 218.91 17.168 219.537 16.7852C220.165 16.4023 220.882 16.2109 221.691 16.2109C221.946 16.2109 222.206 16.2322 222.472 16.2747C222.738 16.3066 222.956 16.3545 223.126 16.4183Z" fill="#2B2B2B"/>
<path d="M204.557 10.5781V33.802H199.788V10.5781H204.557ZM211.703 10.5781V14.3265H192.754V10.5781H211.703Z" fill="#2B2B2B"/>
<path d="M183.385 16.5166V19.7705H173.336V16.5166H183.385ZM175.824 12.2578H180.418V28.5752C180.418 29.0749 180.482 29.4577 180.609 29.7236C180.748 29.9894 180.95 30.1755 181.215 30.2819C181.481 30.3776 181.816 30.4254 182.22 30.4254C182.507 30.4254 182.763 30.4148 182.986 30.3935C183.22 30.3616 183.417 30.3297 183.576 30.2978L183.592 33.6793C183.199 33.8069 182.773 33.9079 182.316 33.9824C181.859 34.0568 181.354 34.094 180.801 34.094C179.791 34.094 178.908 33.9292 178.153 33.5996C177.409 33.2593 176.834 32.717 176.43 31.9726C176.026 31.2283 175.824 30.25 175.824 29.0377V12.2578Z" fill="#2B2B2B"/>
<path d="M164.919 34.1074C163.579 34.1074 162.377 33.8947 161.314 33.4694C160.25 33.0334 159.347 32.4326 158.602 31.667C157.868 30.9013 157.305 30.0134 156.911 29.0032C156.518 27.9824 156.321 26.8978 156.321 25.7493V25.1113C156.321 23.8034 156.507 22.6071 156.88 21.5224C157.252 20.4378 157.783 19.4967 158.475 18.6992C159.176 17.9017 160.027 17.2903 161.027 16.8649C162.026 16.4289 163.153 16.2109 164.408 16.2109C165.631 16.2109 166.716 16.413 167.662 16.8171C168.608 17.2211 169.401 17.7954 170.039 18.5397C170.687 19.2841 171.177 20.1773 171.506 21.2194C171.836 22.2509 172.001 23.3993 172.001 24.6647V26.5787H158.283V23.5163H167.487V23.1653C167.487 22.5273 167.37 21.9584 167.136 21.4586C166.912 20.9482 166.572 20.5442 166.115 20.2464C165.658 19.9487 165.073 19.7998 164.36 19.7998C163.754 19.7998 163.233 19.9327 162.797 20.1986C162.361 20.4644 162.005 20.8366 161.729 21.3151C161.463 21.7936 161.261 22.3572 161.122 23.0058C160.995 23.6439 160.931 24.3457 160.931 25.1113V25.7493C160.931 26.4405 161.027 27.0785 161.218 27.6634C161.42 28.2482 161.702 28.7533 162.063 29.1787C162.436 29.604 162.882 29.9337 163.403 30.1676C163.935 30.4015 164.536 30.5185 165.206 30.5185C166.035 30.5185 166.806 30.359 167.519 30.04C168.242 29.7104 168.864 29.2159 169.385 28.5566L171.618 30.9811C171.256 31.5021 170.762 32.0019 170.134 32.4804C169.518 32.9589 168.773 33.3524 167.901 33.6608C167.029 33.9585 166.035 34.1074 164.919 34.1074Z" fill="#2B2B2B"/>
<path d="M148.939 16.5299H153.102V33.2141C153.102 34.7879 152.751 36.1225 152.049 37.2177C151.358 38.3236 150.39 39.1584 149.146 39.7219C147.902 40.2962 146.456 40.5833 144.807 40.5833C144.084 40.5833 143.319 40.4876 142.511 40.2962C141.713 40.1048 140.947 39.807 140.214 39.4029C139.491 38.9989 138.884 38.4884 138.395 37.8717L140.421 35.1601C140.953 35.7769 141.569 36.2554 142.271 36.5957C142.973 36.9466 143.749 37.122 144.6 37.122C145.43 37.122 146.131 36.9678 146.706 36.6595C147.28 36.3617 147.721 35.9204 148.029 35.3356C148.338 34.7613 148.492 34.0648 148.492 33.246V20.5176L148.939 16.5299ZM137.327 25.3665V25.0316C137.327 23.713 137.486 22.5167 137.805 21.4427C138.135 20.3581 138.597 19.4276 139.193 18.6514C139.799 17.8751 140.533 17.2743 141.394 16.849C142.255 16.4236 143.228 16.2109 144.313 16.2109C145.461 16.2109 146.424 16.4236 147.2 16.849C147.976 17.2743 148.614 17.8804 149.114 18.6673C149.614 19.4436 150.002 20.3634 150.278 21.4267C150.566 22.4795 150.789 23.6332 150.948 24.888V25.6217C150.789 26.8233 150.55 27.9399 150.231 28.9713C149.912 30.0028 149.492 30.9066 148.971 31.6829C148.449 32.4485 147.801 33.044 147.025 33.4694C146.259 33.8947 145.344 34.1074 144.281 34.1074C143.218 34.1074 142.255 33.8894 141.394 33.4534C140.543 33.0174 139.815 32.406 139.209 31.6191C138.603 30.8322 138.135 29.9071 137.805 28.8437C137.486 27.7804 137.327 26.6213 137.327 25.3665ZM141.92 25.0316V25.3665C141.92 26.079 141.99 26.7436 142.128 27.3603C142.266 27.9771 142.479 28.5247 142.766 29.0032C143.064 29.4711 143.43 29.838 143.866 30.1038C144.313 30.359 144.839 30.4866 145.445 30.4866C146.286 30.4866 146.971 30.3112 147.503 29.9603C148.035 29.5987 148.434 29.1042 148.699 28.4769C148.965 27.8495 149.119 27.1264 149.162 26.3076V24.2181C149.141 23.5482 149.05 22.9474 148.891 22.4157C148.731 21.8734 148.508 21.4108 148.221 21.028C147.934 20.6452 147.562 20.3474 147.104 20.1348C146.647 19.9221 146.105 19.8157 145.477 19.8157C144.871 19.8157 144.345 19.954 143.898 20.2305C143.462 20.4963 143.095 20.8632 142.798 21.331C142.511 21.7989 142.293 22.3519 142.144 22.9899C141.995 23.6173 141.92 24.2978 141.92 25.0316Z" fill="#2B2B2B"/>
<path d="M129.494 30.0247V9.28906H134.12V33.789H129.957L129.494 30.0247ZM118.584 25.3671V25.0322C118.584 23.7136 118.733 22.5173 119.031 21.4433C119.328 20.3587 119.764 19.4283 120.339 18.652C120.913 17.8757 121.62 17.2749 122.46 16.8496C123.3 16.4242 124.257 16.2116 125.331 16.2116C126.341 16.2116 127.224 16.4242 127.979 16.8496C128.744 17.2749 129.393 17.8811 129.925 18.6679C130.467 19.4442 130.903 20.364 131.233 21.4274C131.562 22.4801 131.802 23.6339 131.95 24.8886V25.6224C131.802 26.824 131.562 27.9405 131.233 28.972C130.903 30.0034 130.467 30.9073 129.925 31.6835C129.393 32.4492 128.744 33.0446 127.979 33.47C127.213 33.8953 126.32 34.108 125.299 34.108C124.225 34.108 123.268 33.89 122.428 33.454C121.599 33.0181 120.897 32.4066 120.323 31.6197C119.759 30.8328 119.328 29.9077 119.031 28.8444C118.733 27.781 118.584 26.6219 118.584 25.3671ZM123.178 25.0322V25.3671C123.178 26.0796 123.231 26.7442 123.337 27.361C123.454 27.9777 123.64 28.5253 123.895 29.0039C124.161 29.4717 124.502 29.8386 124.916 30.1044C125.342 30.3596 125.857 30.4873 126.464 30.4873C127.25 30.4873 127.899 30.3118 128.409 29.9609C128.92 29.5993 129.308 29.1049 129.574 28.4775C129.85 27.8501 130.01 27.127 130.052 26.3082V24.2187C130.02 23.5488 129.925 22.948 129.765 22.4163C129.616 21.874 129.393 21.4114 129.095 21.0286C128.808 20.6458 128.447 20.3481 128.011 20.1354C127.585 19.9227 127.08 19.8164 126.495 19.8164C125.9 19.8164 125.39 19.9546 124.964 20.2311C124.539 20.4969 124.193 20.8638 123.927 21.3317C123.672 21.7996 123.481 22.3525 123.353 22.9905C123.236 23.6179 123.178 24.2985 123.178 25.0322Z" fill="#2B2B2B"/>
<path d="M110.89 29.6429V16.5156H115.484V33.774H111.161L110.89 29.6429ZM111.401 26.1019L112.756 26.07C112.756 27.2184 112.623 28.2871 112.358 29.276C112.092 30.2543 111.693 31.105 111.161 31.8281C110.63 32.5405 109.96 33.0988 109.152 33.5029C108.343 33.8963 107.392 34.0931 106.296 34.0931C105.456 34.0931 104.68 33.9761 103.968 33.7421C103.266 33.4976 102.66 33.1201 102.149 32.6097C101.649 32.0886 101.256 31.424 100.969 30.6158C100.692 29.7971 100.554 28.8134 100.554 27.665V16.5156H105.148V27.6969C105.148 28.2073 105.206 28.638 105.323 28.9889C105.451 29.3398 105.626 29.6269 105.85 29.8502C106.073 30.0735 106.334 30.233 106.631 30.3287C106.94 30.4244 107.28 30.4723 107.652 30.4723C108.599 30.4723 109.343 30.2809 109.885 29.8981C110.438 29.5153 110.826 28.9942 111.05 28.3349C111.284 27.665 111.401 26.9207 111.401 26.1019Z" fill="#2B2B2B"/>
<path d="M88.8906 23.6097H82.9251L82.8932 20.3239H87.9017C88.7843 20.3239 89.5074 20.2122 90.0709 19.9889C90.6345 19.755 91.0546 19.42 91.331 18.984C91.6181 18.5374 91.7617 17.9951 91.7617 17.3571C91.7617 16.634 91.6235 16.0491 91.347 15.6025C91.0811 15.1559 90.6611 14.8316 90.0869 14.6295C89.5233 14.4275 88.7949 14.3265 87.9017 14.3265H84.584V33.802H79.7988V10.5781H87.9017C89.2521 10.5781 90.4591 10.7057 91.5224 10.9609C92.5964 11.2161 93.5056 11.6043 94.25 12.1253C94.9943 12.6464 95.5632 13.3057 95.9567 14.1032C96.3501 14.8901 96.5468 15.8258 96.5468 16.9105C96.5468 17.8675 96.3288 18.7501 95.8929 19.5582C95.4675 20.3664 94.7923 21.0257 93.8672 21.5361C92.9527 22.0465 91.7564 22.3283 90.2783 22.3815L88.8906 23.6097ZM88.6832 33.802H81.6172L83.4834 30.0696H88.6832C89.5233 30.0696 90.2092 29.9367 90.7409 29.6709C91.2725 29.3944 91.666 29.0222 91.9212 28.5543C92.1764 28.0864 92.304 27.5494 92.304 26.9433C92.304 26.2628 92.187 25.6726 91.9531 25.1728C91.7298 24.673 91.3682 24.2902 90.8685 24.0244C90.3687 23.7479 89.7094 23.6097 88.8906 23.6097H84.2809L84.3128 20.3239H90.055L91.1556 21.6159C92.5698 21.5946 93.7076 21.8445 94.569 22.3655C95.4409 22.8759 96.0736 23.5406 96.4671 24.3593C96.8712 25.1781 97.0732 26.0554 97.0732 26.9912C97.0732 28.4799 96.7489 29.7347 96.1002 30.7555C95.4516 31.7657 94.4999 32.526 93.2451 33.0364C92.0009 33.5468 90.4803 33.802 88.6832 33.802Z" fill="#2B2B2B"/>
<defs>
<linearGradient id="paint0_linear_233_596" x1="59.3825" y1="12.25" x2="11.875" y2="12.25" gradientUnits="userSpaceOnUse">
<stop stop-color="#73E5E2"/>
<stop offset="1" stop-color="#394F87"/>
</linearGradient>
<linearGradient id="paint1_linear_233_596" x1="1.55746e-06" y1="36.7501" x2="47.5075" y2="36.7501" gradientUnits="userSpaceOnUse">
<stop stop-color="#FBDC8E"/>
<stop offset="1" stop-color="#FB958E"/>
</linearGradient>
</defs>
</svg>
